<svg width="61" height="60" viewBox="0 0 61 60" fill="none" xmlns="http://www.w3.org/2000/svg">
<path d="M53.653 9.375H7.71545C7.45764 9.375 7.2467 9.58594 7.2467 9.84375V13.5938C7.2467 13.8516 7.45764 14.0625 7.71545 14.0625H53.653C53.9108 14.0625 54.1217 13.8516 54.1217 13.5938V9.84375C54.1217 9.58594 53.9108 9.375 53.653 9.375ZM53.653 45.9375H7.71545C7.45764 45.9375 7.2467 46.1484 7.2467 46.4062V50.1562C7.2467 50.4141 7.45764 50.625 7.71545 50.625H53.653C53.9108 50.625 54.1217 50.4141 54.1217 50.1562V46.4062C54.1217 46.1484 53.9108 45.9375 53.653 45.9375ZM53.653 27.6562H7.71545C7.45764 27.6562 7.2467 27.8672 7.2467 28.125V31.875C7.2467 32.1328 7.45764 32.3438 7.71545 32.3438H53.653C53.9108 32.3438 54.1217 32.1328 54.1217 31.875V28.125C54.1217 27.8672 53.9108 27.6562 53.653 27.6562Z" fill="black"/>
</svg>
