<svg width="108" height="25" viewBox="0 0 108 25" fill="none" xmlns="http://www.w3.org/2000/svg">
<path fill-rule="evenodd" clip-rule="evenodd" d="M24.8196 14.6278C24.9382 13.9363 25 13.2253 25 12.5C25 5.59644 19.4036 0 12.5 0C8.31396 0 4.6085 2.05766 2.33991 5.21671C3.60762 5.04137 4.86107 5.12264 6.10323 5.43808C9.23662 6.23379 11.9017 8.4669 14.0623 10.2857L14.2343 10.4306C16.5219 12.357 18.38 13.9217 20.3729 14.6628C21.6644 15.1431 23.0789 15.2956 24.8196 14.6278ZM22.443 20.0765C20.1592 23.0691 16.5551 25 12.5 25C5.59644 25 0 19.4036 0 12.5C0 12.1428 0.0149802 11.7892 0.0443467 11.4396C2.10785 10.028 3.63023 9.96877 4.87256 10.2843C6.70365 10.7493 8.50642 12.1444 10.8421 14.1108C10.9808 14.2275 11.1215 14.3464 11.2643 14.4671L11.2643 14.4671C13.3148 16.2 15.7925 18.294 18.6301 19.3493C19.8564 19.8053 21.1271 20.064 22.443 20.0765Z" fill="#3CDDF3"/>
<path d="M39.4058 19.9032C38.2775 19.9032 37.3007 19.6908 36.4755 19.2661C35.6672 18.8413 35.0525 18.2892 34.6315 17.6096C34.2105 16.913 34 16.1825 34 15.4179V15.265H37.4102V15.4179C37.4102 15.8767 37.587 16.2844 37.9406 16.6412C38.2943 16.998 38.8079 17.1764 39.4815 17.1764C40.0373 17.1764 40.4835 17.0489 40.8203 16.7941C41.174 16.5223 41.3508 16.157 41.3508 15.6983C41.3508 15.2905 41.1993 14.9677 40.8961 14.7299C40.593 14.492 40.2141 14.3391 39.7594 14.2712L38.2438 13.9653C37.2502 13.7785 36.3492 13.3792 35.5409 12.7676C34.7326 12.156 34.3284 11.23 34.3284 9.98981C34.3284 8.7156 34.7915 7.72171 35.7177 7.00816C36.6439 6.27761 37.8312 5.91234 39.2795 5.91234C40.3404 5.91234 41.2582 6.10771 42.0329 6.49847C42.8075 6.88923 43.3969 7.40741 43.8011 8.05301C44.2053 8.68162 44.4073 9.3612 44.4073 10.0917V10.1937H40.9972V10.1172C40.9972 9.70948 40.8456 9.33571 40.5425 8.99592C40.2394 8.63914 39.7762 8.46076 39.1532 8.46076C38.6311 8.46076 38.2101 8.59667 37.8901 8.8685C37.5702 9.14033 37.4102 9.49711 37.4102 9.93884C37.4102 10.3466 37.5702 10.6694 37.8901 10.9072C38.2269 11.1451 38.6395 11.3065 39.1279 11.3914L40.7951 11.7227C41.8729 11.9606 42.7822 12.3938 43.5232 13.0224C44.2642 13.634 44.6347 14.509 44.6347 15.6473C44.6347 16.4968 44.4073 17.2443 43.9527 17.8899C43.498 18.5355 42.8665 19.0367 42.0581 19.3935C41.2666 19.7333 40.3825 19.9032 39.4058 19.9032Z" fill="white"/>
<path d="M53.8331 19.9032C52.7048 19.9032 51.8207 19.6398 51.1807 19.1131C50.5408 18.5865 50.0693 18.0088 49.7661 17.3802H49.564V25H46.0528V6.24363H49.564V8.33333H49.7661C50.0356 7.75569 50.4903 7.21203 51.1302 6.70234C51.7701 6.17567 52.6627 5.91234 53.8078 5.91234C55.5087 5.91234 56.8138 6.54944 57.7232 7.82365C58.6494 9.09786 59.1125 10.8053 59.1125 12.946C59.1125 15.0357 58.6494 16.7176 57.7232 17.9918C56.8138 19.2661 55.5171 19.9032 53.8331 19.9032ZM52.5701 17.0999C53.5805 17.0999 54.3299 16.6922 54.8182 15.8767C55.3235 15.0612 55.5761 14.0758 55.5761 12.9205C55.5761 11.7992 55.3235 10.8393 54.8182 10.0408C54.3299 9.22528 53.5805 8.81753 52.5701 8.81753C51.5765 8.81753 50.8271 9.22528 50.3219 10.0408C49.8167 10.8563 49.564 11.8247 49.564 12.946C49.564 14.0843 49.8167 15.0612 50.3219 15.8767C50.8271 16.6922 51.5765 17.0999 52.5701 17.0999Z" fill="white"/>
<path d="M66.7947 19.9032C65.3969 19.9032 64.2181 19.5889 63.2582 18.9602C62.3152 18.3146 61.6079 17.4652 61.1363 16.4118C60.6648 15.3585 60.429 14.2032 60.429 12.946C60.429 11.6888 60.6564 10.5335 61.1111 9.48012C61.5826 8.40979 62.2983 7.55182 63.2582 6.90622C64.2181 6.26062 65.3969 5.93782 66.7947 5.93782C68.1924 5.93782 69.3713 6.26062 70.3312 6.90622C71.2911 7.53483 72.0068 8.37581 72.4783 9.42915C72.9498 10.4825 73.1856 11.6378 73.1856 12.895C73.1856 14.1522 72.9498 15.316 72.4783 16.3863C72.0068 17.4397 71.2911 18.2892 70.3312 18.9348C69.3713 19.5804 68.1924 19.9032 66.7947 19.9032ZM66.7947 17.0489C67.7714 17.0489 68.504 16.6582 68.9924 15.8767C69.4976 15.0782 69.7502 14.0843 69.7502 12.895C69.7502 11.7057 69.4976 10.7288 68.9924 9.96432C68.504 9.18281 67.7714 8.79205 66.7947 8.79205C65.818 8.79205 65.0854 9.18281 64.597 9.96432C64.1087 10.7288 63.8645 11.7057 63.8645 12.895C63.8645 14.0843 64.1087 15.0782 64.597 15.8767C65.1022 16.6582 65.8348 17.0489 66.7947 17.0489Z" fill="white"/>
<path d="M74.8759 6.24363H78.3366V8.3843H78.5134C78.7323 7.78967 79.1365 7.28848 79.7259 6.88073C80.3153 6.456 81.0732 6.24363 81.9994 6.24363C82.353 6.24363 82.6561 6.27761 82.9088 6.34557L82.7572 9.58206C82.3362 9.46313 81.8899 9.40367 81.4184 9.40367C80.3743 9.40367 79.5996 9.684 79.0944 10.2446C78.5892 10.7883 78.3366 11.6972 78.3366 12.9715V19.6993H74.8759V6.24363Z" fill="white"/>
<path d="M88.661 8.99592V14.9847C88.661 15.5793 88.6863 16.0211 88.7368 16.3099C88.8042 16.5987 88.9726 16.8281 89.242 16.998C89.5115 17.1679 89.9493 17.2528 90.5556 17.2528C90.9092 17.2528 91.2713 17.2188 91.6418 17.1509V19.5974C91.4565 19.6313 91.1197 19.6738 90.6314 19.7248C90.1598 19.7757 89.6967 19.8012 89.242 19.8012C88.0127 19.8012 87.0949 19.6228 86.4886 19.2661C85.8992 18.8923 85.5287 18.4336 85.3772 17.8899C85.2256 17.3293 85.1498 16.6157 85.1498 15.7492V8.99592H82.9269V6.24363H85.1751V1.86035H88.661V6.24363H91.6418V8.99592H88.661Z" fill="white"/>
<path d="M93.8116 6.24363H97.2976V19.6993H93.8116V6.24363ZM95.5294 3.92457C94.9736 3.92457 94.5105 3.73768 94.14 3.36391C93.7695 2.97316 93.5843 2.50595 93.5843 1.96228C93.5843 1.40163 93.7695 0.934421 94.14 0.560653C94.5105 0.186884 94.9736 0 95.5294 0C96.0851 0 96.5482 0.195379 96.9187 0.586137C97.2892 0.959905 97.4744 1.41862 97.4744 1.96228C97.4744 2.50595 97.2892 2.97316 96.9187 3.36391C96.5482 3.73768 96.0851 3.92457 95.5294 3.92457Z" fill="white"/>
<path d="M104.703 8.99592V14.9847C104.703 15.5793 104.729 16.0211 104.779 16.3099C104.847 16.5987 105.015 16.8281 105.284 16.998C105.554 17.1679 105.992 17.2528 106.598 17.2528C106.952 17.2528 107.314 17.2188 107.684 17.1509V19.5974C107.499 19.6313 107.162 19.6738 106.674 19.7248C106.202 19.7757 105.739 19.8012 105.284 19.8012C104.055 19.8012 103.137 19.6228 102.531 19.2661C101.942 18.8923 101.571 18.4336 101.42 17.8899C101.268 17.3293 101.192 16.6157 101.192 15.7492V8.99592H98.9693V6.24363H101.218V1.86035H104.703V6.24363H107.684V8.99592H104.703Z" fill="white"/>
</svg>
